<?xml version="1.0" standalone="no"?>
<!DOCTYPE svg PUBLIC "-//W3C//DTD SVG 20010904//EN"
 "http://www.w3.org/TR/2001/REC-SVG-20010904/DTD/svg10.dtd">
<svg version="1.0" xmlns="http://www.w3.org/2000/svg"
 width="320.000000pt" height="320.000000pt" viewBox="0 0 320.000000 320.000000"
 preserveAspectRatio="xMidYMid meet">

<g transform="translate(0.000000,320.000000) scale(0.100000,-0.100000)"
fill="#000000" stroke="none">
<path d="M1470 3189 c-384 -39 -714 -192 -976 -453 -123 -123 -189 -208 -261
-335 -106 -186 -176 -398 -203 -615 -29 -224 12 -535 98 -743 21 -51 30 -63
48 -63 13 0 117 18 231 40 114 22 260 50 323 61 187 35 207 53 212 184 3 65 1
70 -17 69 -11 -1 -121 -20 -243 -43 -123 -24 -226 -41 -228 -38 -8 8 -25 780
-17 788 4 4 163 37 353 75 190 37 473 93 630 124 157 31 288 54 291 51 4 -3
12 -157 18 -341 21 -649 21 -650 40 -650 25 0 700 128 711 135 15 9 13 195 -2
196 -19 2 -19 2 -213 -31 -288 -50 -297 -51 -302 -46 -3 2 -4 135 -4 295 1
271 2 294 22 347 26 68 92 139 159 172 27 13 178 47 385 88 187 37 344 71 349
75 26 23 -222 278 -369 378 -232 158 -454 242 -735 276 -135 16 -171 17 -300
4z"/>
<path d="M2960 2250 c-34 -8 -238 -47 -480 -90 -160 -29 -187 -39 -220 -77
-27 -30 -30 -40 -30 -103 0 -66 1 -70 23 -70 12 0 127 21 254 47 128 26 235
45 237 42 3 -2 8 -189 12 -415 l7 -411 -49 -8 c-27 -4 -137 -24 -244 -45 -107
-21 -269 -53 -360 -70 -91 -17 -268 -51 -394 -76 -126 -25 -230 -43 -232 -42
-2 2 -8 143 -14 313 -6 171 -14 399 -18 507 -4 108 -10 200 -14 203 -4 4 -53
-2 -110 -14 -57 -12 -211 -41 -343 -67 -132 -25 -250 -47 -263 -50 -21 -4 -22
-9 -22 -109 0 -103 0 -105 23 -105 18 0 293 53 478 92 18 4 28 -135 31 -427
l3 -210 -33 -68 c-35 -70 -80 -113 -148 -142 -30 -12 -377 -85 -613 -129 -63
-12 -116 -26 -118 -31 -9 -27 206 -254 332 -351 204 -157 492 -271 769 -305
132 -16 362 -6 489 21 209 44 408 127 578 242 125 84 326 284 411 408 186 271
278 568 278 900 0 196 -27 359 -88 531 -42 120 -52 128 -132 109z m61 -758
c59 -53 35 -150 -42 -173 -92 -28 -175 75 -122 151 27 39 45 49 90 50 33 0 50
-6 74 -28z"/>
<path d="M2893 1415 c0 -22 2 -30 4 -17 2 12 2 30 0 40 -3 9 -5 -1 -4 -23z"/>
<path d="M2945 1440 c-3 -5 -1 -10 4 -10 6 0 11 5 11 10 0 6 -2 10 -4 10 -3 0
-8 -4 -11 -10z"/>
<path d="M3001 1433 c0 -12 -6 -23 -13 -25 -7 -3 -9 -12 -4 -24 7 -18 8 -18
17 -1 6 10 8 30 6 45 -3 20 -4 22 -6 5z"/>
<path d="M2936 1365 c-4 -10 1 -15 16 -15 17 0 18 2 8 15 -7 8 -14 15 -15 15
-2 0 -5 -7 -9 -15z"/>
</g>
</svg>
